<?xml version="1.0" encoding="iso-8859-1"?>
<!-- Generator: Adobe Illustrator 19.1.0, SVG Export Plug-In . SVG Version: 6.00 Build 0)  -->
<svg version="1.1" id="Capa_1" xmlns="http://www.w3.org/2000/svg" xmlns:xlink="http://www.w3.org/1999/xlink" x="0px" y="0px"
	 viewBox="0 0 434.046 434.046" style="enable-background:new 0 0 434.046 434.046;" xml:space="preserve">
<g>
	<path style="fill:#CCCCCC;" d="M425.843,427.113c-2.099,0-4.199-0.801-5.8-2.403l-34.929-34.929c-3.204-3.203-3.204-8.397,0-11.6
		c3.203-3.204,8.397-3.204,11.6,0l34.93,34.929c3.204,3.203,3.204,8.397,0,11.6C430.042,426.312,427.942,427.113,425.843,427.113z"
		/>
	<g>
		<polygon style="fill:#CCCCCC;" points="397.196,6.933 232.734,225.796 232.734,225.807 205.533,198.607 205.533,198.596 		"/>
		<path style="fill:#CCCCCC;" d="M205.533,261.987l-29.312,39.002c-8.4-1.98-16.931-2.953-25.44-2.953
			c-5.611,0-11.222,0.426-16.767,1.269c-3.183-5.829-7.251-11.309-12.184-16.242c-0.131-0.131-0.252-0.252-0.383-0.383
			l56.884-56.884L205.533,261.987z"/>
		<path style="fill:#E6E6E6;" d="M289.607,282.681l-0.383,0.383c-4.933,4.933-9.001,10.412-12.184,16.242
			c-5.545-0.842-11.145-1.269-16.756-1.269c-8.509,0-17.04,0.973-25.44,2.953l-29.312-39.002l-27.201-36.191L13.859,6.933
			L289.607,282.681z"/>
	</g>
	<g>
		<path style="fill:#42565f;" d="M390.154,283.063c27.868,27.868,27.868,73.049,0,100.917s-73.06,27.868-100.928,0
			s-27.868-73.049,0-100.917C317.094,255.195,362.286,255.195,390.154,283.063z M367.886,361.723
			c15.575-15.574,15.575-40.828,0-56.403c-15.574-15.575-40.818-15.575-56.392,0c-15.574,15.574-15.574,40.828,0,56.403
			C327.069,377.287,352.312,377.287,367.886,361.723z"/>
		<path style="fill:#42565f;" d="M121.829,283.063c27.868,27.868,27.868,73.049,0,100.917c-27.868,27.868-73.06,27.868-100.928,0
			s-27.868-73.049,0-100.917C48.769,255.195,93.961,255.195,121.829,283.063z M99.561,361.723c15.575-15.574,15.575-40.828,0-56.403
			c-15.574-15.575-40.817-15.575-56.392,0c-15.575,15.574-15.575,40.828,0,56.403C58.744,377.287,83.987,377.287,99.561,361.723z"/>
	</g>
</g>
<g>
</g>
<g>
</g>
<g>
</g>
<g>
</g>
<g>
</g>
<g>
</g>
<g>
</g>
<g>
</g>
<g>
</g>
<g>
</g>
<g>
</g>
<g>
</g>
<g>
</g>
<g>
</g>
<g>
</g>
</svg>
